<?xml version="1.0" standalone="no"?>
<svg viewBox="0 0 200 200" xmlns="http://www.w3.org/2000/svg">
  <path fill="#4B6BFB" d="M41.4,-73.7C50.4,-66.6,52.2,-48.8,55.6,-34.8C59,-20.8,64.1,-10.4,62.4,-1C60.7,8.4,52.2,16.8,46.2,26.3C40.1,35.8,36.5,46.3,29.2,53.5C21.9,60.6,10.9,64.4,1,62.6C-9,60.9,-17.9,53.7,-29.2,48.9C-40.5,44.1,-54.2,41.6,-60.5,33.9C-66.9,26.1,-65.9,13.1,-67.9,-1.2C-69.9,-15.4,-75,-30.8,-71.2,-43C-67.4,-55.2,-54.9,-64.2,-41.5,-68.9C-28.2,-73.5,-14.1,-73.8,1.1,-75.6C16.2,-77.5,32.4,-80.9,41.4,-73.7Z" transform="translate(100 100)" />
</svg>
