<?xml version="1.0" standalone="no"?>
<svg viewBox="0 0 200 200" xmlns="http://www.w3.org/2000/svg">
  <path fill="#4B6BFB" d="M38.9,-70.3C50.5,-60.8,59.8,-50.4,64.7,-38.5C69.6,-26.6,70,-13.3,68.6,-0.8C67.2,11.7,63.9,23.3,57.4,32.4C50.9,41.5,41.2,48,31.1,52.2C21,56.3,10.5,58.2,0.8,56.8C-8.8,55.3,-17.6,50.6,-25.4,45C-33.2,39.5,-40,33.3,-50.7,25.6C-61.4,18,-76,9,-82.4,-3.7C-88.9,-16.4,-87.1,-32.8,-76.4,-40.4C-65.6,-48.1,-46,-46.9,-31.8,-54.9C-17.6,-62.9,-8.8,-80,2.5,-84.3C13.7,-88.5,27.4,-79.8,38.9,-70.3Z" transform="translate(100 100)" />
</svg>
